Coordinates
version=1
nRows=23
nColumns=28
inDegrees=yes

Units are S.I. units (second, meters, Newtons, ...)
Angles are in degrees.

endheader
time	pelvis_tilt	pelvis_list	pelvis_rotation	pelvis_tx	pelvis_ty	pelvis_tz	hip_flexion_r	hip_adduction_r	hip_rotation_r	knee_angle_r	ankle_angle_r	subtalar_angle_r	mtp_angle_r	hip_flexion_l	hip_adduction_l	hip_rotation_l	knee_angle_l	socket_flexion	socket_adduction	socket_rotation	socket_tx	socket_ty	socket_tz	foot_flex	lumbar_extension	lumbar_bending	lumbar_rotation
      0.00000000	     -1.23655628	     -1.73006660	     -8.71556683	     -0.78795395	      0.96493155	      0.29966176	    -22.87540090	      1.15162056	     10.03494466	     -6.40164744	     -3.85445045	    -19.14293789	     15.82268323	     25.60341855	     -4.61624798	      0.41871506	    -10.29038641	     -8.95012195	      0.00000000	      0.00000000	      0.00000000	      0.00000000	      0.00000000	     -1.33254420	     -7.09640724	      1.29081064	      4.31393436
      0.00416667	     -1.08753953	     -1.71712525	     -8.64658253	     -0.78213677	      0.96398939	      0.29904955	    -23.22442922	      1.08495368	      9.84333320	     -6.61614506	     -4.30491874	    -19.47853733	     16.06072725	     25.63527919	     -4.53082757	      0.43386501	    -11.16032293	     -9.15479596	      0.00000000	      0.00000000	      0.00000000	      0.00000000	      0.00000000	     -1.82202964	     -7.27726397	      1.27052229	      4.52111266
      0.00833333	     -1.10760498	     -1.69023089	     -8.68635953	     -0.77592894	      0.96289261	      0.29859068	    -23.41587648	      0.99128969	      9.86796085	     -6.81350228	     -4.36472021	    -19.47901994	     16.07275107	     25.66313436	     -4.50336105	      0.42616787	    -11.44748046	     -8.85195980	      0.00000000	      0.00000000	      0.00000000	      0.00000000	      0.00000000	     -2.05011421	     -7.20580871	      1.25363948	      4.52485750
      0.01250000	     -1.07622409	     -1.40224992	     -8.81348939	     -0.76934697	      0.96181777	      0.29835084	    -23.50342382	      0.59209127	      9.61142481	     -7.25437372	     -4.89698980	    -19.61364015	     16.34690231	     25.73237868	     -4.24599419	      0.05592102	    -12.28828231	     -9.12952105	      0.00000000	      0.00000000	      0.00000000	      0.00000000	      0.00000000	     -2.83644927	     -7.12038183	      0.82618149	      4.64405860
      0.01666667	     -1.13001578	     -1.27502953	     -8.76943551	     -0.76271468	      0.96052665	      0.29770648	    -23.57514749	      0.40867745	      9.26625362	     -7.56510466	     -5.66775278	    -20.04582717	     19.76975159	     25.95327644	     -4.07784013	     -0.00162291	    -13.11170011	     -9.23884534	      0.00000000	      0.00000000	      0.00000000	      0.00000000	      0.00000000	     -3.39883870	     -6.98061375	      0.67273447	      4.67590745
      0.02083333	     -1.11762882	     -1.15063425	     -8.79685729	     -0.75601239	      0.95949087	      0.29719571	    -23.69887197	      0.22309596	      9.22417946	     -7.96141698	     -5.88322052	    -20.02256877	     19.77239047	     25.96183084	     -3.93939146	     -0.08330141	    -13.51463572	     -9.05038878	      0.00000000	      0.00000000	      0.00000000	      0.00000000	      0.00000000	     -3.97208678	     -6.93102877	      0.52458561	      4.70217968
      0.02500000	     -1.11720469	     -0.87514013	     -8.80257146	     -0.74898737	      0.95828677	      0.29665885	    -23.72339734	     -0.15451239	      8.61122474	     -8.45538821	     -6.36944100	    -19.70854710	     21.52523682	     26.11973571	     -3.63728745	     -0.35036085	    -14.41553964	     -9.23056526	      0.00000000	      0.00000000	      0.00000000	      0.00000000	      0.00000000	     -4.55153054	     -6.80982758	      0.13612079	      4.76223575
      0.02916667	     -1.11235650	     -0.71454165	     -8.82979048	     -0.74209272	      0.95734131	      0.29613604	    -23.77450556	     -0.37328953	      8.52570687	     -8.95121512	     -6.68630174	    -19.70146570	     21.51964254	     26.12143807	     -3.46153976	     -0.44481007	    -14.80293172	     -9.03439196	      0.00000000	      0.00000000	      0.00000000	      0.00000000	      0.00000000	     -5.19676602	     -6.76118618	     -0.08122905	      4.78966715
      0.03333333	     -1.21024927	     -0.46970871	     -8.76057929	     -0.73496481	      0.95607947	      0.29543270	    -23.67891555	     -0.66288617	      8.02312817	     -9.47840441	     -7.40834535	    -19.75982727	     23.14246457	     26.43057987	     -3.16585197	     -0.62472989	    -15.78996566	     -9.20400664	      0.00000000	      0.00000000	      0.00000000	      0.00000000	      0.00000000	     -5.70716529	     -6.52784492	     -0.40101503	      4.74871877
      0.03750000	     -1.19529426	     -0.28069795	     -8.76033182	     -0.72800413	      0.95524301	      0.29486060	    -23.67086463	     -0.90019298	      7.88466067	    -10.07463112	     -7.83070619	    -19.73249554	     23.13910258	     26.43573457	     -2.94432580	     -0.74605774	    -16.20663880	     -8.99456971	      0.00000000	      0.00000000	      0.00000000	      0.00000000	      0.00000000	     -6.30945964	     -6.50153009	     -0.67087977	      4.78132923
      0.04166667	     -1.18795551	     -0.03852917	     -8.76433958	     -0.72095873	      0.95443869	      0.29426737	    -23.61455760	     -1.19970770	      7.67614792	    -10.71466367	     -8.36995202	    -19.69909939	     23.15704927	     26.47440708	     -2.66920629	     -0.87349618	    -16.73015060	     -8.86321479	      0.00000000	      0.00000000	      0.00000000	      0.00000000	      0.00000000	     -6.86279257	     -6.45432408	     -1.00733486	      4.80697018
      0.04583333	     -1.41798714	      0.21335790	     -8.52637124	     -0.71368195	      0.95306861	      0.29324044	    -23.29458740	     -1.43507905	      6.94902004	    -11.38579190	     -9.21998452	    -19.59427801	     25.24227045	     27.00137290	     -2.30000245	     -0.90426036	    -17.88958343	     -9.08207490	      0.00000000	      0.00000000	      0.00000000	      0.00000000	      0.00000000	     -7.24064330	     -6.03448019	     -1.28054117	      4.56907607
      0.05000000	     -1.40093629	      0.48340340	     -8.49388318	     -0.70660982	      0.95242240	      0.29258141	    -23.16929221	     -1.75875012	      6.65670416	    -12.13065810	     -9.92358562	    -19.54499729	     25.30779337	     27.03398911	     -1.97545827	     -1.08238861	    -18.41491083	     -8.92119866	      0.00000000	      0.00000000	      0.00000000	      0.00000000	      0.00000000	     -7.67806936	     -6.00298426	     -1.65466457	      4.61090448
      0.05416667	     -1.39693179	      0.70480941	     -8.41636562	     -0.69963212	      0.95188214	      0.29186402	    -23.00746105	     -1.99209851	      6.50815402	    -12.92086272	    -10.55070797	    -19.47944008	     25.34571482	     27.06567513	     -1.67555212	     -1.11553293	    -18.87412965	     -8.70726518	      0.00000000	      0.00000000	      0.00000000	      0.00000000	      0.00000000	     -8.10939062	     -6.00695588	     -1.99350025	      4.60146580
      0.05833333	     -1.65663113	      0.98502217	     -8.09861106	     -0.69235061	      0.95073617	      0.29062160	    -22.55499792	     -2.23694461	      5.74670929	    -13.73439277	    -11.63277183	    -19.40418157	     26.45303894	     27.59052204	     -1.23028039	     -1.06722876	    -19.88269061	     -8.77583939	      0.00000000	      0.00000000	      0.00000000	      0.00000000	      0.00000000	     -8.37149427	     -5.50006637	     -2.22555740	      4.30317499
      0.06250000	     -1.65085763	      1.25512996	     -8.06232729	     -0.68538140	      0.95034783	      0.28997370	    -22.27093178	     -2.55408069	      5.54721126	    -14.67707809	    -12.44225213	    -19.30950354	     26.57813687	     27.63031348	     -0.90437558	     -1.20063327	    -20.43475024	     -8.62075841	      0.00000000	      0.00000000	      0.00000000	      0.00000000	      0.00000000	     -8.61801874	     -5.54407639	     -2.63982530	      4.27169237
      0.06666667	     -1.62425968	      1.49084996	     -7.94907413	     -0.67851223	      0.95008583	      0.28919560	    -22.03192113	     -2.77953202	      5.49894325	    -15.57932673	    -13.15140400	    -19.20201160	     26.62821041	     27.65630611	     -0.56414735	     -1.12094683	    -20.95663561	     -8.39532631	      0.00000000	      0.00000000	      0.00000000	      0.00000000	      0.00000000	     -8.77608023	     -5.58517264	     -3.01123353	      4.24751727
      0.07083333	     -1.69312363	      1.82767384	     -7.81803627	     -0.67139325	      0.94966265	      0.28828179	    -21.57368362	     -3.18168794	      4.94987076	    -16.64113391	    -14.38497216	    -19.05531139	     26.75255366	     27.82265205	     -0.12823553	     -1.32797573	    -21.63276764	     -8.29994113	      0.00000000	      0.00000000	      0.00000000	      0.00000000	      0.00000000	     -8.89920201	     -5.42155704	     -3.39259691	      4.15014962
      0.07500000	     -2.14621219	      2.03934643	     -7.40812896	     -0.66428683	      0.94850899	      0.28689499	    -20.72283864	     -3.32830728	      4.27438252	    -17.73670484	    -15.63652489	    -18.88025518	     29.39990022	     28.59572321	      0.27265024	     -1.06414364	    -22.81199398	     -8.45709736	      0.00000000	      0.00000000	      0.00000000	      0.00000000	      0.00000000	     -8.95478398	     -4.80965957	     -3.62204201	      3.75084074
      0.07916667	     -2.08061616	      2.28985089	     -7.28821502	     -0.65750978	      0.94854242	      0.28605108	    -20.35883347	     -3.60658271	      4.14660857	    -18.84888125	    -16.59907918	    -18.71736385	     29.36359282	     28.57066780	      0.63975656	     -1.08745378	    -23.31912374	     -8.20656746	      0.00000000	      0.00000000	      0.00000000	      0.00000000	      0.00000000	     -8.89129724	     -4.92159697	     -3.98160884	      3.69050687
      0.08333333	     -2.12126271	      2.65198054	     -7.13846311	     -0.65042452	      0.94839781	      0.28507696	    -19.82615550	     -4.04258982	      3.73516104	    -20.02734197	    -17.98863695	    -18.48091207	     29.32011573	     28.66489067	      1.12241957	     -1.22357484	    -23.92528391	     -8.07344069	      0.00000000	      0.00000000	      0.00000000	      0.00000000	      0.00000000	     -8.80871816	     -4.79586129	     -4.40093297	      3.57738845
      0.08750000	     -2.31960540	      3.00964766	     -6.86717804	     -0.64328410	      0.94803419	      0.28397176	    -19.17139509	     -4.40238781	      3.37008529	    -21.14443031	    -19.34965811	    -18.23630175	     29.37727492	     28.96449906	      1.63811793	     -1.17515110	    -24.60536693	     -7.94183159	      0.00000000	      0.00000000	      0.00000000	      0.00000000	      0.00000000	     -8.65384778	     -4.48780341	     -4.84814004	      3.37374837
      0.09166667	     -2.37411073	      3.25435023	     -6.68501134	     -0.63646696	      0.94801413	      0.28298411	    -18.53169980	     -4.69019209	      3.11911873	    -22.44722026	    -20.64659091	    -17.96940570	     29.37712160	     29.09796106	      2.01683055	     -1.17302701	    -25.27027091	     -7.80022822	      0.00000000	      0.00000000	      0.00000000	      0.00000000	      0.00000000	     -8.42206018	     -4.39682563	     -5.19623460	      3.21835541
